<?xml version="1.0" standalone="yes"?>
<svg version="1.1" xmlns="http://www.w3.org/2000/svg" xmlns:xlink="http://www.w3.org/1999/xlink" xmlns:ev="http://www.w3.org/2001/xml-events" width="407" height="407" shape-rendering="crispEdges">
<rect width="11" height="11" x="0" y="0" style="fill:#000"/><rect width="11" height="11" x="11" y="0" style="fill:#000"/><rect width="11" height="11" x="22" y="0" style="fill:#000"/><rect width="11" height="11" x="33" y="0" style="fill:#000"/><rect width="11" height="11" x="44" y="0" style="fill:#000"/><rect width="11" height="11" x="55" y="0" style="fill:#000"/><rect width="11" height="11" x="66" y="0" style="fill:#000"/><rect width="11" height="11" x="121" y="0" style="fill:#000"/><rect width="11" height="11" x="132" y="0" style="fill:#000"/><rect width="11" height="11" x="198" y="0" style="fill:#000"/><rect width="11" height="11" x="220" y="0" style="fill:#000"/><rect width="11" height="11" x="231" y="0" style="fill:#000"/><rect width="11" height="11" x="264" y="0" style="fill:#000"/><rect width="11" height="11" x="275" y="0" style="fill:#000"/><rect width="11" height="11" x="297" y="0" style="fill:#000"/><rect width="11" height="11" x="330" y="0" style="fill:#000"/><rect width="11" height="11" x="341" y="0" style="fill:#000"/><rect width="11" height="11" x="352" y="0" style="fill:#000"/><rect width="11" height="11" x="363" y="0" style="fill:#000"/><rect width="11" height="11" x="374" y="0" style="fill:#000"/><rect width="11" height="11" x="385" y="0" style="fill:#000"/><rect width="11" height="11" x="396" y="0" style="fill:#000"/>
<rect width="11" height="11" x="0" y="11" style="fill:#000"/><rect width="11" height="11" x="66" y="11" style="fill:#000"/><rect width="11" height="11" x="88" y="11" style="fill:#000"/><rect width="11" height="11" x="99" y="11" style="fill:#000"/><rect width="11" height="11" x="121" y="11" style="fill:#000"/><rect width="11" height="11" x="132" y="11" style="fill:#000"/><rect width="11" height="11" x="143" y="11" style="fill:#000"/><rect width="11" height="11" x="154" y="11" style="fill:#000"/><rect width="11" height="11" x="176" y="11" style="fill:#000"/><rect width="11" height="11" x="187" y="11" style="fill:#000"/><rect width="11" height="11" x="220" y="11" style="fill:#000"/><rect width="11" height="11" x="231" y="11" style="fill:#000"/><rect width="11" height="11" x="264" y="11" style="fill:#000"/><rect width="11" height="11" x="275" y="11" style="fill:#000"/><rect width="11" height="11" x="330" y="11" style="fill:#000"/><rect width="11" height="11" x="396" y="11" style="fill:#000"/>
<rect width="11" height="11" x="0" y="22" style="fill:#000"/><rect width="11" height="11" x="22" y="22" style="fill:#000"/><rect width="11" height="11" x="33" y="22" style="fill:#000"/><rect width="11" height="11" x="44" y="22" style="fill:#000"/><rect width="11" height="11" x="66" y="22" style="fill:#000"/><rect width="11" height="11" x="99" y="22" style="fill:#000"/><rect width="11" height="11" x="110" y="22" style="fill:#000"/><rect width="11" height="11" x="121" y="22" style="fill:#000"/><rect width="11" height="11" x="154" y="22" style="fill:#000"/><rect width="11" height="11" x="165" y="22" style="fill:#000"/><rect width="11" height="11" x="176" y="22" style="fill:#000"/><rect width="11" height="11" x="198" y="22" style="fill:#000"/><rect width="11" height="11" x="264" y="22" style="fill:#000"/><rect width="11" height="11" x="297" y="22" style="fill:#000"/><rect width="11" height="11" x="308" y="22" style="fill:#000"/><rect width="11" height="11" x="330" y="22" style="fill:#000"/><rect width="11" height="11" x="352" y="22" style="fill:#000"/><rect width="11" height="11" x="363" y="22" style="fill:#000"/><rect width="11" height="11" x="374" y="22" style="fill:#000"/><rect width="11" height="11" x="396" y="22" style="fill:#000"/>
<rect width="11" height="11" x="0" y="33" style="fill:#000"/><rect width="11" height="11" x="22" y="33" style="fill:#000"/><rect width="11" height="11" x="33" y="33" style="fill:#000"/><rect width="11" height="11" x="44" y="33" style="fill:#000"/><rect width="11" height="11" x="66" y="33" style="fill:#000"/><rect width="11" height="11" x="99" y="33" style="fill:#000"/><rect width="11" height="11" x="110" y="33" style="fill:#000"/><rect width="11" height="11" x="143" y="33" style="fill:#000"/><rect width="11" height="11" x="154" y="33" style="fill:#000"/><rect width="11" height="11" x="165" y="33" style="fill:#000"/><rect width="11" height="11" x="198" y="33" style="fill:#000"/><rect width="11" height="11" x="209" y="33" style="fill:#000"/><rect width="11" height="11" x="231" y="33" style="fill:#000"/><rect width="11" height="11" x="242" y="33" style="fill:#000"/><rect width="11" height="11" x="264" y="33" style="fill:#000"/><rect width="11" height="11" x="275" y="33" style="fill:#000"/><rect width="11" height="11" x="286" y="33" style="fill:#000"/><rect width="11" height="11" x="297" y="33" style="fill:#000"/><rect width="11" height="11" x="308" y="33" style="fill:#000"/><rect width="11" height="11" x="330" y="33" style="fill:#000"/><rect width="11" height="11" x="352" y="33" style="fill:#000"/><rect width="11" height="11" x="363" y="33" style="fill:#000"/><rect width="11" height="11" x="374" y="33" style="fill:#000"/><rect width="11" height="11" x="396" y="33" style="fill:#000"/>
<rect width="11" height="11" x="0" y="44" style="fill:#000"/><rect width="11" height="11" x="22" y="44" style="fill:#000"/><rect width="11" height="11" x="33" y="44" style="fill:#000"/><rect width="11" height="11" x="44" y="44" style="fill:#000"/><rect width="11" height="11" x="66" y="44" style="fill:#000"/><rect width="11" height="11" x="143" y="44" style="fill:#000"/><rect width="11" height="11" x="154" y="44" style="fill:#000"/><rect width="11" height="11" x="176" y="44" style="fill:#000"/><rect width="11" height="11" x="209" y="44" style="fill:#000"/><rect width="11" height="11" x="242" y="44" style="fill:#000"/><rect width="11" height="11" x="297" y="44" style="fill:#000"/><rect width="11" height="11" x="330" y="44" style="fill:#000"/><rect width="11" height="11" x="352" y="44" style="fill:#000"/><rect width="11" height="11" x="363" y="44" style="fill:#000"/><rect width="11" height="11" x="374" y="44" style="fill:#000"/><rect width="11" height="11" x="396" y="44" style="fill:#000"/>
<rect width="11" height="11" x="0" y="55" style="fill:#000"/><rect width="11" height="11" x="66" y="55" style="fill:#000"/><rect width="11" height="11" x="88" y="55" style="fill:#000"/><rect width="11" height="11" x="99" y="55" style="fill:#000"/><rect width="11" height="11" x="110" y="55" style="fill:#000"/><rect width="11" height="11" x="154" y="55" style="fill:#000"/><rect width="11" height="11" x="176" y="55" style="fill:#000"/><rect width="11" height="11" x="187" y="55" style="fill:#000"/><rect width="11" height="11" x="242" y="55" style="fill:#000"/><rect width="11" height="11" x="253" y="55" style="fill:#000"/><rect width="11" height="11" x="264" y="55" style="fill:#000"/><rect width="11" height="11" x="308" y="55" style="fill:#000"/><rect width="11" height="11" x="330" y="55" style="fill:#000"/><rect width="11" height="11" x="396" y="55" style="fill:#000"/>
<rect width="11" height="11" x="0" y="66" style="fill:#000"/><rect width="11" height="11" x="11" y="66" style="fill:#000"/><rect width="11" height="11" x="22" y="66" style="fill:#000"/><rect width="11" height="11" x="33" y="66" style="fill:#000"/><rect width="11" height="11" x="44" y="66" style="fill:#000"/><rect width="11" height="11" x="55" y="66" style="fill:#000"/><rect width="11" height="11" x="66" y="66" style="fill:#000"/><rect width="11" height="11" x="88" y="66" style="fill:#000"/><rect width="11" height="11" x="110" y="66" style="fill:#000"/><rect width="11" height="11" x="132" y="66" style="fill:#000"/><rect width="11" height="11" x="154" y="66" style="fill:#000"/><rect width="11" height="11" x="176" y="66" style="fill:#000"/><rect width="11" height="11" x="198" y="66" style="fill:#000"/><rect width="11" height="11" x="220" y="66" style="fill:#000"/><rect width="11" height="11" x="242" y="66" style="fill:#000"/><rect width="11" height="11" x="264" y="66" style="fill:#000"/><rect width="11" height="11" x="286" y="66" style="fill:#000"/><rect width="11" height="11" x="308" y="66" style="fill:#000"/><rect width="11" height="11" x="330" y="66" style="fill:#000"/><rect width="11" height="11" x="341" y="66" style="fill:#000"/><rect width="11" height="11" x="352" y="66" style="fill:#000"/><rect width="11" height="11" x="363" y="66" style="fill:#000"/><rect width="11" height="11" x="374" y="66" style="fill:#000"/><rect width="11" height="11" x="385" y="66" style="fill:#000"/><rect width="11" height="11" x="396" y="66" style="fill:#000"/>
<rect width="11" height="11" x="88" y="77" style="fill:#000"/><rect width="11" height="11" x="99" y="77" style="fill:#000"/><rect width="11" height="11" x="121" y="77" style="fill:#000"/><rect width="11" height="11" x="143" y="77" style="fill:#000"/><rect width="11" height="11" x="154" y="77" style="fill:#000"/><rect width="11" height="11" x="176" y="77" style="fill:#000"/><rect width="11" height="11" x="198" y="77" style="fill:#000"/><rect width="11" height="11" x="209" y="77" style="fill:#000"/><rect width="11" height="11" x="242" y="77" style="fill:#000"/><rect width="11" height="11" x="253" y="77" style="fill:#000"/><rect width="11" height="11" x="264" y="77" style="fill:#000"/><rect width="11" height="11" x="275" y="77" style="fill:#000"/>
<rect width="11" height="11" x="44" y="88" style="fill:#000"/><rect width="11" height="11" x="55" y="88" style="fill:#000"/><rect width="11" height="11" x="66" y="88" style="fill:#000"/><rect width="11" height="11" x="77" y="88" style="fill:#000"/><rect width="11" height="11" x="132" y="88" style="fill:#000"/><rect width="11" height="11" x="143" y="88" style="fill:#000"/><rect width="11" height="11" x="165" y="88" style="fill:#000"/><rect width="11" height="11" x="209" y="88" style="fill:#000"/><rect width="11" height="11" x="264" y="88" style="fill:#000"/><rect width="11" height="11" x="275" y="88" style="fill:#000"/><rect width="11" height="11" x="297" y="88" style="fill:#000"/><rect width="11" height="11" x="308" y="88" style="fill:#000"/><rect width="11" height="11" x="330" y="88" style="fill:#000"/><rect width="11" height="11" x="341" y="88" style="fill:#000"/><rect width="11" height="11" x="385" y="88" style="fill:#000"/>
<rect width="11" height="11" x="0" y="99" style="fill:#000"/><rect width="11" height="11" x="22" y="99" style="fill:#000"/><rect width="11" height="11" x="44" y="99" style="fill:#000"/><rect width="11" height="11" x="55" y="99" style="fill:#000"/><rect width="11" height="11" x="77" y="99" style="fill:#000"/><rect width="11" height="11" x="99" y="99" style="fill:#000"/><rect width="11" height="11" x="121" y="99" style="fill:#000"/><rect width="11" height="11" x="132" y="99" style="fill:#000"/><rect width="11" height="11" x="154" y="99" style="fill:#000"/><rect width="11" height="11" x="220" y="99" style="fill:#000"/><rect width="11" height="11" x="231" y="99" style="fill:#000"/><rect width="11" height="11" x="242" y="99" style="fill:#000"/><rect width="11" height="11" x="253" y="99" style="fill:#000"/><rect width="11" height="11" x="286" y="99" style="fill:#000"/><rect width="11" height="11" x="330" y="99" style="fill:#000"/><rect width="11" height="11" x="363" y="99" style="fill:#000"/><rect width="11" height="11" x="374" y="99" style="fill:#000"/>
<rect width="11" height="11" x="11" y="110" style="fill:#000"/><rect width="11" height="11" x="55" y="110" style="fill:#000"/><rect width="11" height="11" x="66" y="110" style="fill:#000"/><rect width="11" height="11" x="77" y="110" style="fill:#000"/><rect width="11" height="11" x="88" y="110" style="fill:#000"/><rect width="11" height="11" x="110" y="110" style="fill:#000"/><rect width="11" height="11" x="132" y="110" style="fill:#000"/><rect width="11" height="11" x="143" y="110" style="fill:#000"/><rect width="11" height="11" x="220" y="110" style="fill:#000"/><rect width="11" height="11" x="242" y="110" style="fill:#000"/><rect width="11" height="11" x="264" y="110" style="fill:#000"/><rect width="11" height="11" x="275" y="110" style="fill:#000"/><rect width="11" height="11" x="286" y="110" style="fill:#000"/><rect width="11" height="11" x="297" y="110" style="fill:#000"/><rect width="11" height="11" x="319" y="110" style="fill:#000"/><rect width="11" height="11" x="352" y="110" style="fill:#000"/><rect width="11" height="11" x="374" y="110" style="fill:#000"/>
<rect width="11" height="11" x="0" y="121" style="fill:#000"/><rect width="11" height="11" x="11" y="121" style="fill:#000"/><rect width="11" height="11" x="33" y="121" style="fill:#000"/><rect width="11" height="11" x="44" y="121" style="fill:#000"/><rect width="11" height="11" x="77" y="121" style="fill:#000"/><rect width="11" height="11" x="88" y="121" style="fill:#000"/><rect width="11" height="11" x="132" y="121" style="fill:#000"/><rect width="11" height="11" x="143" y="121" style="fill:#000"/><rect width="11" height="11" x="154" y="121" style="fill:#000"/><rect width="11" height="11" x="209" y="121" style="fill:#000"/><rect width="11" height="11" x="220" y="121" style="fill:#000"/><rect width="11" height="11" x="253" y="121" style="fill:#000"/><rect width="11" height="11" x="286" y="121" style="fill:#000"/><rect width="11" height="11" x="297" y="121" style="fill:#000"/><rect width="11" height="11" x="308" y="121" style="fill:#000"/><rect width="11" height="11" x="319" y="121" style="fill:#000"/><rect width="11" height="11" x="341" y="121" style="fill:#000"/><rect width="11" height="11" x="352" y="121" style="fill:#000"/><rect width="11" height="11" x="363" y="121" style="fill:#000"/><rect width="11" height="11" x="374" y="121" style="fill:#000"/><rect width="11" height="11" x="396" y="121" style="fill:#000"/>
<rect width="11" height="11" x="0" y="132" style="fill:#000"/><rect width="11" height="11" x="55" y="132" style="fill:#000"/><rect width="11" height="11" x="66" y="132" style="fill:#000"/><rect width="11" height="11" x="88" y="132" style="fill:#000"/><rect width="11" height="11" x="110" y="132" style="fill:#000"/><rect width="11" height="11" x="121" y="132" style="fill:#000"/><rect width="11" height="11" x="132" y="132" style="fill:#000"/><rect width="11" height="11" x="143" y="132" style="fill:#000"/><rect width="11" height="11" x="154" y="132" style="fill:#000"/><rect width="11" height="11" x="165" y="132" style="fill:#000"/><rect width="11" height="11" x="176" y="132" style="fill:#000"/><rect width="11" height="11" x="209" y="132" style="fill:#000"/><rect width="11" height="11" x="231" y="132" style="fill:#000"/><rect width="11" height="11" x="264" y="132" style="fill:#000"/><rect width="11" height="11" x="286" y="132" style="fill:#000"/><rect width="11" height="11" x="308" y="132" style="fill:#000"/><rect width="11" height="11" x="319" y="132" style="fill:#000"/><rect width="11" height="11" x="330" y="132" style="fill:#000"/><rect width="11" height="11" x="341" y="132" style="fill:#000"/><rect width="11" height="11" x="363" y="132" style="fill:#000"/><rect width="11" height="11" x="374" y="132" style="fill:#000"/><rect width="11" height="11" x="385" y="132" style="fill:#000"/>
<rect width="11" height="11" x="11" y="143" style="fill:#000"/><rect width="11" height="11" x="33" y="143" style="fill:#000"/><rect width="11" height="11" x="55" y="143" style="fill:#000"/><rect width="11" height="11" x="77" y="143" style="fill:#000"/><rect width="11" height="11" x="132" y="143" style="fill:#000"/><rect width="11" height="11" x="187" y="143" style="fill:#000"/><rect width="11" height="11" x="209" y="143" style="fill:#000"/><rect width="11" height="11" x="231" y="143" style="fill:#000"/><rect width="11" height="11" x="242" y="143" style="fill:#000"/><rect width="11" height="11" x="253" y="143" style="fill:#000"/><rect width="11" height="11" x="275" y="143" style="fill:#000"/><rect width="11" height="11" x="297" y="143" style="fill:#000"/><rect width="11" height="11" x="308" y="143" style="fill:#000"/><rect width="11" height="11" x="319" y="143" style="fill:#000"/><rect width="11" height="11" x="352" y="143" style="fill:#000"/><rect width="11" height="11" x="374" y="143" style="fill:#000"/>
<rect width="11" height="11" x="0" y="154" style="fill:#000"/><rect width="11" height="11" x="66" y="154" style="fill:#000"/><rect width="11" height="11" x="77" y="154" style="fill:#000"/><rect width="11" height="11" x="99" y="154" style="fill:#000"/><rect width="11" height="11" x="176" y="154" style="fill:#000"/><rect width="11" height="11" x="187" y="154" style="fill:#000"/><rect width="11" height="11" x="209" y="154" style="fill:#000"/><rect width="11" height="11" x="220" y="154" style="fill:#000"/><rect width="11" height="11" x="231" y="154" style="fill:#000"/><rect width="11" height="11" x="242" y="154" style="fill:#000"/><rect width="11" height="11" x="297" y="154" style="fill:#000"/><rect width="11" height="11" x="319" y="154" style="fill:#000"/><rect width="11" height="11" x="363" y="154" style="fill:#000"/><rect width="11" height="11" x="374" y="154" style="fill:#000"/><rect width="11" height="11" x="385" y="154" style="fill:#000"/>
<rect width="11" height="11" x="11" y="165" style="fill:#000"/><rect width="11" height="11" x="33" y="165" style="fill:#000"/><rect width="11" height="11" x="44" y="165" style="fill:#000"/><rect width="11" height="11" x="77" y="165" style="fill:#000"/><rect width="11" height="11" x="110" y="165" style="fill:#000"/><rect width="11" height="11" x="121" y="165" style="fill:#000"/><rect width="11" height="11" x="132" y="165" style="fill:#000"/><rect width="11" height="11" x="154" y="165" style="fill:#000"/><rect width="11" height="11" x="165" y="165" style="fill:#000"/><rect width="11" height="11" x="198" y="165" style="fill:#000"/><rect width="11" height="11" x="209" y="165" style="fill:#000"/><rect width="11" height="11" x="220" y="165" style="fill:#000"/><rect width="11" height="11" x="231" y="165" style="fill:#000"/><rect width="11" height="11" x="242" y="165" style="fill:#000"/><rect width="11" height="11" x="253" y="165" style="fill:#000"/><rect width="11" height="11" x="297" y="165" style="fill:#000"/><rect width="11" height="11" x="308" y="165" style="fill:#000"/><rect width="11" height="11" x="319" y="165" style="fill:#000"/><rect width="11" height="11" x="341" y="165" style="fill:#000"/><rect width="11" height="11" x="374" y="165" style="fill:#000"/><rect width="11" height="11" x="385" y="165" style="fill:#000"/>
<rect width="11" height="11" x="22" y="176" style="fill:#000"/><rect width="11" height="11" x="33" y="176" style="fill:#000"/><rect width="11" height="11" x="66" y="176" style="fill:#000"/><rect width="11" height="11" x="77" y="176" style="fill:#000"/><rect width="11" height="11" x="110" y="176" style="fill:#000"/><rect width="11" height="11" x="143" y="176" style="fill:#000"/><rect width="11" height="11" x="154" y="176" style="fill:#000"/><rect width="11" height="11" x="165" y="176" style="fill:#000"/><rect width="11" height="11" x="176" y="176" style="fill:#000"/><rect width="11" height="11" x="187" y="176" style="fill:#000"/><rect width="11" height="11" x="264" y="176" style="fill:#000"/><rect width="11" height="11" x="286" y="176" style="fill:#000"/><rect width="11" height="11" x="297" y="176" style="fill:#000"/><rect width="11" height="11" x="308" y="176" style="fill:#000"/><rect width="11" height="11" x="330" y="176" style="fill:#000"/><rect width="11" height="11" x="363" y="176" style="fill:#000"/><rect width="11" height="11" x="374" y="176" style="fill:#000"/><rect width="11" height="11" x="396" y="176" style="fill:#000"/>
<rect width="11" height="11" x="22" y="187" style="fill:#000"/><rect width="11" height="11" x="55" y="187" style="fill:#000"/><rect width="11" height="11" x="77" y="187" style="fill:#000"/><rect width="11" height="11" x="99" y="187" style="fill:#000"/><rect width="11" height="11" x="110" y="187" style="fill:#000"/><rect width="11" height="11" x="121" y="187" style="fill:#000"/><rect width="11" height="11" x="132" y="187" style="fill:#000"/><rect width="11" height="11" x="143" y="187" style="fill:#000"/><rect width="11" height="11" x="154" y="187" style="fill:#000"/><rect width="11" height="11" x="165" y="187" style="fill:#000"/><rect width="11" height="11" x="176" y="187" style="fill:#000"/><rect width="11" height="11" x="198" y="187" style="fill:#000"/><rect width="11" height="11" x="220" y="187" style="fill:#000"/><rect width="11" height="11" x="231" y="187" style="fill:#000"/><rect width="11" height="11" x="253" y="187" style="fill:#000"/><rect width="11" height="11" x="264" y="187" style="fill:#000"/><rect width="11" height="11" x="297" y="187" style="fill:#000"/><rect width="11" height="11" x="319" y="187" style="fill:#000"/><rect width="11" height="11" x="341" y="187" style="fill:#000"/><rect width="11" height="11" x="352" y="187" style="fill:#000"/><rect width="11" height="11" x="363" y="187" style="fill:#000"/><rect width="11" height="11" x="374" y="187" style="fill:#000"/>
<rect width="11" height="11" x="0" y="198" style="fill:#000"/><rect width="11" height="11" x="11" y="198" style="fill:#000"/><rect width="11" height="11" x="66" y="198" style="fill:#000"/><rect width="11" height="11" x="77" y="198" style="fill:#000"/><rect width="11" height="11" x="88" y="198" style="fill:#000"/><rect width="11" height="11" x="99" y="198" style="fill:#000"/><rect width="11" height="11" x="110" y="198" style="fill:#000"/><rect width="11" height="11" x="132" y="198" style="fill:#000"/><rect width="11" height="11" x="143" y="198" style="fill:#000"/><rect width="11" height="11" x="165" y="198" style="fill:#000"/><rect width="11" height="11" x="209" y="198" style="fill:#000"/><rect width="11" height="11" x="231" y="198" style="fill:#000"/><rect width="11" height="11" x="242" y="198" style="fill:#000"/><rect width="11" height="11" x="264" y="198" style="fill:#000"/><rect width="11" height="11" x="297" y="198" style="fill:#000"/><rect width="11" height="11" x="319" y="198" style="fill:#000"/><rect width="11" height="11" x="330" y="198" style="fill:#000"/><rect width="11" height="11" x="352" y="198" style="fill:#000"/><rect width="11" height="11" x="363" y="198" style="fill:#000"/>
<rect width="11" height="11" x="0" y="209" style="fill:#000"/><rect width="11" height="11" x="11" y="209" style="fill:#000"/><rect width="11" height="11" x="44" y="209" style="fill:#000"/><rect width="11" height="11" x="88" y="209" style="fill:#000"/><rect width="11" height="11" x="121" y="209" style="fill:#000"/><rect width="11" height="11" x="132" y="209" style="fill:#000"/><rect width="11" height="11" x="154" y="209" style="fill:#000"/><rect width="11" height="11" x="165" y="209" style="fill:#000"/><rect width="11" height="11" x="176" y="209" style="fill:#000"/><rect width="11" height="11" x="187" y="209" style="fill:#000"/><rect width="11" height="11" x="198" y="209" style="fill:#000"/><rect width="11" height="11" x="209" y="209" style="fill:#000"/><rect width="11" height="11" x="220" y="209" style="fill:#000"/><rect width="11" height="11" x="231" y="209" style="fill:#000"/><rect width="11" height="11" x="242" y="209" style="fill:#000"/><rect width="11" height="11" x="253" y="209" style="fill:#000"/><rect width="11" height="11" x="264" y="209" style="fill:#000"/><rect width="11" height="11" x="286" y="209" style="fill:#000"/><rect width="11" height="11" x="308" y="209" style="fill:#000"/><rect width="11" height="11" x="341" y="209" style="fill:#000"/><rect width="11" height="11" x="352" y="209" style="fill:#000"/><rect width="11" height="11" x="363" y="209" style="fill:#000"/><rect width="11" height="11" x="374" y="209" style="fill:#000"/><rect width="11" height="11" x="385" y="209" style="fill:#000"/>
<rect width="11" height="11" x="0" y="220" style="fill:#000"/><rect width="11" height="11" x="11" y="220" style="fill:#000"/><rect width="11" height="11" x="44" y="220" style="fill:#000"/><rect width="11" height="11" x="66" y="220" style="fill:#000"/><rect width="11" height="11" x="77" y="220" style="fill:#000"/><rect width="11" height="11" x="99" y="220" style="fill:#000"/><rect width="11" height="11" x="110" y="220" style="fill:#000"/><rect width="11" height="11" x="132" y="220" style="fill:#000"/><rect width="11" height="11" x="143" y="220" style="fill:#000"/><rect width="11" height="11" x="187" y="220" style="fill:#000"/><rect width="11" height="11" x="198" y="220" style="fill:#000"/><rect width="11" height="11" x="209" y="220" style="fill:#000"/><rect width="11" height="11" x="231" y="220" style="fill:#000"/><rect width="11" height="11" x="242" y="220" style="fill:#000"/><rect width="11" height="11" x="275" y="220" style="fill:#000"/><rect width="11" height="11" x="319" y="220" style="fill:#000"/><rect width="11" height="11" x="330" y="220" style="fill:#000"/><rect width="11" height="11" x="363" y="220" style="fill:#000"/><rect width="11" height="11" x="374" y="220" style="fill:#000"/><rect width="11" height="11" x="385" y="220" style="fill:#000"/><rect width="11" height="11" x="396" y="220" style="fill:#000"/>
<rect width="11" height="11" x="11" y="231" style="fill:#000"/><rect width="11" height="11" x="44" y="231" style="fill:#000"/><rect width="11" height="11" x="121" y="231" style="fill:#000"/><rect width="11" height="11" x="132" y="231" style="fill:#000"/><rect width="11" height="11" x="143" y="231" style="fill:#000"/><rect width="11" height="11" x="154" y="231" style="fill:#000"/><rect width="11" height="11" x="165" y="231" style="fill:#000"/><rect width="11" height="11" x="176" y="231" style="fill:#000"/><rect width="11" height="11" x="198" y="231" style="fill:#000"/><rect width="11" height="11" x="209" y="231" style="fill:#000"/><rect width="11" height="11" x="242" y="231" style="fill:#000"/><rect width="11" height="11" x="253" y="231" style="fill:#000"/><rect width="11" height="11" x="264" y="231" style="fill:#000"/><rect width="11" height="11" x="275" y="231" style="fill:#000"/><rect width="11" height="11" x="297" y="231" style="fill:#000"/><rect width="11" height="11" x="319" y="231" style="fill:#000"/><rect width="11" height="11" x="352" y="231" style="fill:#000"/><rect width="11" height="11" x="385" y="231" style="fill:#000"/>
<rect width="11" height="11" x="0" y="242" style="fill:#000"/><rect width="11" height="11" x="22" y="242" style="fill:#000"/><rect width="11" height="11" x="44" y="242" style="fill:#000"/><rect width="11" height="11" x="55" y="242" style="fill:#000"/><rect width="11" height="11" x="66" y="242" style="fill:#000"/><rect width="11" height="11" x="77" y="242" style="fill:#000"/><rect width="11" height="11" x="88" y="242" style="fill:#000"/><rect width="11" height="11" x="121" y="242" style="fill:#000"/><rect width="11" height="11" x="132" y="242" style="fill:#000"/><rect width="11" height="11" x="143" y="242" style="fill:#000"/><rect width="11" height="11" x="165" y="242" style="fill:#000"/><rect width="11" height="11" x="187" y="242" style="fill:#000"/><rect width="11" height="11" x="198" y="242" style="fill:#000"/><rect width="11" height="11" x="264" y="242" style="fill:#000"/><rect width="11" height="11" x="297" y="242" style="fill:#000"/><rect width="11" height="11" x="308" y="242" style="fill:#000"/><rect width="11" height="11" x="319" y="242" style="fill:#000"/><rect width="11" height="11" x="374" y="242" style="fill:#000"/><rect width="11" height="11" x="385" y="242" style="fill:#000"/>
<rect width="11" height="11" x="11" y="253" style="fill:#000"/><rect width="11" height="11" x="88" y="253" style="fill:#000"/><rect width="11" height="11" x="99" y="253" style="fill:#000"/><rect width="11" height="11" x="110" y="253" style="fill:#000"/><rect width="11" height="11" x="121" y="253" style="fill:#000"/><rect width="11" height="11" x="165" y="253" style="fill:#000"/><rect width="11" height="11" x="220" y="253" style="fill:#000"/><rect width="11" height="11" x="242" y="253" style="fill:#000"/><rect width="11" height="11" x="253" y="253" style="fill:#000"/><rect width="11" height="11" x="264" y="253" style="fill:#000"/><rect width="11" height="11" x="286" y="253" style="fill:#000"/><rect width="11" height="11" x="308" y="253" style="fill:#000"/><rect width="11" height="11" x="341" y="253" style="fill:#000"/><rect width="11" height="11" x="374" y="253" style="fill:#000"/><rect width="11" height="11" x="385" y="253" style="fill:#000"/>
<rect width="11" height="11" x="0" y="264" style="fill:#000"/><rect width="11" height="11" x="22" y="264" style="fill:#000"/><rect width="11" height="11" x="44" y="264" style="fill:#000"/><rect width="11" height="11" x="66" y="264" style="fill:#000"/><rect width="11" height="11" x="77" y="264" style="fill:#000"/><rect width="11" height="11" x="88" y="264" style="fill:#000"/><rect width="11" height="11" x="99" y="264" style="fill:#000"/><rect width="11" height="11" x="176" y="264" style="fill:#000"/><rect width="11" height="11" x="187" y="264" style="fill:#000"/><rect width="11" height="11" x="198" y="264" style="fill:#000"/><rect width="11" height="11" x="231" y="264" style="fill:#000"/><rect width="11" height="11" x="275" y="264" style="fill:#000"/><rect width="11" height="11" x="286" y="264" style="fill:#000"/><rect width="11" height="11" x="297" y="264" style="fill:#000"/><rect width="11" height="11" x="330" y="264" style="fill:#000"/><rect width="11" height="11" x="341" y="264" style="fill:#000"/><rect width="11" height="11" x="352" y="264" style="fill:#000"/><rect width="11" height="11" x="374" y="264" style="fill:#000"/><rect width="11" height="11" x="385" y="264" style="fill:#000"/><rect width="11" height="11" x="396" y="264" style="fill:#000"/>
<rect width="11" height="11" x="0" y="275" style="fill:#000"/><rect width="11" height="11" x="22" y="275" style="fill:#000"/><rect width="11" height="11" x="44" y="275" style="fill:#000"/><rect width="11" height="11" x="77" y="275" style="fill:#000"/><rect width="11" height="11" x="110" y="275" style="fill:#000"/><rect width="11" height="11" x="176" y="275" style="fill:#000"/><rect width="11" height="11" x="209" y="275" style="fill:#000"/><rect width="11" height="11" x="231" y="275" style="fill:#000"/><rect width="11" height="11" x="264" y="275" style="fill:#000"/><rect width="11" height="11" x="275" y="275" style="fill:#000"/><rect width="11" height="11" x="308" y="275" style="fill:#000"/><rect width="11" height="11" x="319" y="275" style="fill:#000"/><rect width="11" height="11" x="330" y="275" style="fill:#000"/><rect width="11" height="11" x="341" y="275" style="fill:#000"/><rect width="11" height="11" x="352" y="275" style="fill:#000"/><rect width="11" height="11" x="363" y="275" style="fill:#000"/><rect width="11" height="11" x="385" y="275" style="fill:#000"/>
<rect width="11" height="11" x="66" y="286" style="fill:#000"/><rect width="11" height="11" x="77" y="286" style="fill:#000"/><rect width="11" height="11" x="88" y="286" style="fill:#000"/><rect width="11" height="11" x="121" y="286" style="fill:#000"/><rect width="11" height="11" x="143" y="286" style="fill:#000"/><rect width="11" height="11" x="154" y="286" style="fill:#000"/><rect width="11" height="11" x="165" y="286" style="fill:#000"/><rect width="11" height="11" x="176" y="286" style="fill:#000"/><rect width="11" height="11" x="187" y="286" style="fill:#000"/><rect width="11" height="11" x="198" y="286" style="fill:#000"/><rect width="11" height="11" x="209" y="286" style="fill:#000"/><rect width="11" height="11" x="220" y="286" style="fill:#000"/><rect width="11" height="11" x="231" y="286" style="fill:#000"/><rect width="11" height="11" x="242" y="286" style="fill:#000"/><rect width="11" height="11" x="253" y="286" style="fill:#000"/><rect width="11" height="11" x="264" y="286" style="fill:#000"/><rect width="11" height="11" x="308" y="286" style="fill:#000"/><rect width="11" height="11" x="319" y="286" style="fill:#000"/><rect width="11" height="11" x="341" y="286" style="fill:#000"/><rect width="11" height="11" x="363" y="286" style="fill:#000"/><rect width="11" height="11" x="374" y="286" style="fill:#000"/><rect width="11" height="11" x="385" y="286" style="fill:#000"/>
<rect width="11" height="11" x="44" y="297" style="fill:#000"/><rect width="11" height="11" x="77" y="297" style="fill:#000"/><rect width="11" height="11" x="88" y="297" style="fill:#000"/><rect width="11" height="11" x="121" y="297" style="fill:#000"/><rect width="11" height="11" x="132" y="297" style="fill:#000"/><rect width="11" height="11" x="176" y="297" style="fill:#000"/><rect width="11" height="11" x="198" y="297" style="fill:#000"/><rect width="11" height="11" x="209" y="297" style="fill:#000"/><rect width="11" height="11" x="242" y="297" style="fill:#000"/><rect width="11" height="11" x="253" y="297" style="fill:#000"/><rect width="11" height="11" x="330" y="297" style="fill:#000"/><rect width="11" height="11" x="363" y="297" style="fill:#000"/><rect width="11" height="11" x="374" y="297" style="fill:#000"/><rect width="11" height="11" x="396" y="297" style="fill:#000"/>
<rect width="11" height="11" x="0" y="308" style="fill:#000"/><rect width="11" height="11" x="11" y="308" style="fill:#000"/><rect width="11" height="11" x="22" y="308" style="fill:#000"/><rect width="11" height="11" x="44" y="308" style="fill:#000"/><rect width="11" height="11" x="55" y="308" style="fill:#000"/><rect width="11" height="11" x="66" y="308" style="fill:#000"/><rect width="11" height="11" x="77" y="308" style="fill:#000"/><rect width="11" height="11" x="88" y="308" style="fill:#000"/><rect width="11" height="11" x="99" y="308" style="fill:#000"/><rect width="11" height="11" x="143" y="308" style="fill:#000"/><rect width="11" height="11" x="176" y="308" style="fill:#000"/><rect width="11" height="11" x="187" y="308" style="fill:#000"/><rect width="11" height="11" x="264" y="308" style="fill:#000"/><rect width="11" height="11" x="286" y="308" style="fill:#000"/><rect width="11" height="11" x="297" y="308" style="fill:#000"/><rect width="11" height="11" x="308" y="308" style="fill:#000"/><rect width="11" height="11" x="319" y="308" style="fill:#000"/><rect width="11" height="11" x="330" y="308" style="fill:#000"/><rect width="11" height="11" x="341" y="308" style="fill:#000"/><rect width="11" height="11" x="352" y="308" style="fill:#000"/><rect width="11" height="11" x="363" y="308" style="fill:#000"/><rect width="11" height="11" x="374" y="308" style="fill:#000"/><rect width="11" height="11" x="385" y="308" style="fill:#000"/>
<rect width="11" height="11" x="88" y="319" style="fill:#000"/><rect width="11" height="11" x="99" y="319" style="fill:#000"/><rect width="11" height="11" x="132" y="319" style="fill:#000"/><rect width="11" height="11" x="165" y="319" style="fill:#000"/><rect width="11" height="11" x="176" y="319" style="fill:#000"/><rect width="11" height="11" x="198" y="319" style="fill:#000"/><rect width="11" height="11" x="220" y="319" style="fill:#000"/><rect width="11" height="11" x="231" y="319" style="fill:#000"/><rect width="11" height="11" x="242" y="319" style="fill:#000"/><rect width="11" height="11" x="253" y="319" style="fill:#000"/><rect width="11" height="11" x="275" y="319" style="fill:#000"/><rect width="11" height="11" x="286" y="319" style="fill:#000"/><rect width="11" height="11" x="308" y="319" style="fill:#000"/><rect width="11" height="11" x="352" y="319" style="fill:#000"/><rect width="11" height="11" x="363" y="319" style="fill:#000"/><rect width="11" height="11" x="385" y="319" style="fill:#000"/>
<rect width="11" height="11" x="0" y="330" style="fill:#000"/><rect width="11" height="11" x="11" y="330" style="fill:#000"/><rect width="11" height="11" x="22" y="330" style="fill:#000"/><rect width="11" height="11" x="33" y="330" style="fill:#000"/><rect width="11" height="11" x="44" y="330" style="fill:#000"/><rect width="11" height="11" x="55" y="330" style="fill:#000"/><rect width="11" height="11" x="66" y="330" style="fill:#000"/><rect width="11" height="11" x="88" y="330" style="fill:#000"/><rect width="11" height="11" x="99" y="330" style="fill:#000"/><rect width="11" height="11" x="154" y="330" style="fill:#000"/><rect width="11" height="11" x="187" y="330" style="fill:#000"/><rect width="11" height="11" x="198" y="330" style="fill:#000"/><rect width="11" height="11" x="231" y="330" style="fill:#000"/><rect width="11" height="11" x="253" y="330" style="fill:#000"/><rect width="11" height="11" x="264" y="330" style="fill:#000"/><rect width="11" height="11" x="308" y="330" style="fill:#000"/><rect width="11" height="11" x="330" y="330" style="fill:#000"/><rect width="11" height="11" x="352" y="330" style="fill:#000"/><rect width="11" height="11" x="363" y="330" style="fill:#000"/><rect width="11" height="11" x="374" y="330" style="fill:#000"/><rect width="11" height="11" x="385" y="330" style="fill:#000"/>
<rect width="11" height="11" x="0" y="341" style="fill:#000"/><rect width="11" height="11" x="66" y="341" style="fill:#000"/><rect width="11" height="11" x="88" y="341" style="fill:#000"/><rect width="11" height="11" x="99" y="341" style="fill:#000"/><rect width="11" height="11" x="121" y="341" style="fill:#000"/><rect width="11" height="11" x="132" y="341" style="fill:#000"/><rect width="11" height="11" x="154" y="341" style="fill:#000"/><rect width="11" height="11" x="165" y="341" style="fill:#000"/><rect width="11" height="11" x="176" y="341" style="fill:#000"/><rect width="11" height="11" x="187" y="341" style="fill:#000"/><rect width="11" height="11" x="198" y="341" style="fill:#000"/><rect width="11" height="11" x="242" y="341" style="fill:#000"/><rect width="11" height="11" x="253" y="341" style="fill:#000"/><rect width="11" height="11" x="308" y="341" style="fill:#000"/><rect width="11" height="11" x="352" y="341" style="fill:#000"/><rect width="11" height="11" x="374" y="341" style="fill:#000"/><rect width="11" height="11" x="385" y="341" style="fill:#000"/><rect width="11" height="11" x="396" y="341" style="fill:#000"/>
<rect width="11" height="11" x="0" y="352" style="fill:#000"/><rect width="11" height="11" x="22" y="352" style="fill:#000"/><rect width="11" height="11" x="33" y="352" style="fill:#000"/><rect width="11" height="11" x="44" y="352" style="fill:#000"/><rect width="11" height="11" x="66" y="352" style="fill:#000"/><rect width="11" height="11" x="88" y="352" style="fill:#000"/><rect width="11" height="11" x="99" y="352" style="fill:#000"/><rect width="11" height="11" x="132" y="352" style="fill:#000"/><rect width="11" height="11" x="143" y="352" style="fill:#000"/><rect width="11" height="11" x="165" y="352" style="fill:#000"/><rect width="11" height="11" x="253" y="352" style="fill:#000"/><rect width="11" height="11" x="264" y="352" style="fill:#000"/><rect width="11" height="11" x="286" y="352" style="fill:#000"/><rect width="11" height="11" x="308" y="352" style="fill:#000"/><rect width="11" height="11" x="319" y="352" style="fill:#000"/><rect width="11" height="11" x="330" y="352" style="fill:#000"/><rect width="11" height="11" x="341" y="352" style="fill:#000"/><rect width="11" height="11" x="352" y="352" style="fill:#000"/><rect width="11" height="11" x="363" y="352" style="fill:#000"/><rect width="11" height="11" x="374" y="352" style="fill:#000"/><rect width="11" height="11" x="385" y="352" style="fill:#000"/>
<rect width="11" height="11" x="0" y="363" style="fill:#000"/><rect width="11" height="11" x="22" y="363" style="fill:#000"/><rect width="11" height="11" x="33" y="363" style="fill:#000"/><rect width="11" height="11" x="44" y="363" style="fill:#000"/><rect width="11" height="11" x="66" y="363" style="fill:#000"/><rect width="11" height="11" x="110" y="363" style="fill:#000"/><rect width="11" height="11" x="132" y="363" style="fill:#000"/><rect width="11" height="11" x="143" y="363" style="fill:#000"/><rect width="11" height="11" x="154" y="363" style="fill:#000"/><rect width="11" height="11" x="165" y="363" style="fill:#000"/><rect width="11" height="11" x="209" y="363" style="fill:#000"/><rect width="11" height="11" x="231" y="363" style="fill:#000"/><rect width="11" height="11" x="242" y="363" style="fill:#000"/><rect width="11" height="11" x="286" y="363" style="fill:#000"/><rect width="11" height="11" x="308" y="363" style="fill:#000"/><rect width="11" height="11" x="330" y="363" style="fill:#000"/>
<rect width="11" height="11" x="0" y="374" style="fill:#000"/><rect width="11" height="11" x="22" y="374" style="fill:#000"/><rect width="11" height="11" x="33" y="374" style="fill:#000"/><rect width="11" height="11" x="44" y="374" style="fill:#000"/><rect width="11" height="11" x="66" y="374" style="fill:#000"/><rect width="11" height="11" x="132" y="374" style="fill:#000"/><rect width="11" height="11" x="154" y="374" style="fill:#000"/><rect width="11" height="11" x="176" y="374" style="fill:#000"/><rect width="11" height="11" x="209" y="374" style="fill:#000"/><rect width="11" height="11" x="220" y="374" style="fill:#000"/><rect width="11" height="11" x="231" y="374" style="fill:#000"/><rect width="11" height="11" x="242" y="374" style="fill:#000"/><rect width="11" height="11" x="275" y="374" style="fill:#000"/><rect width="11" height="11" x="286" y="374" style="fill:#000"/><rect width="11" height="11" x="308" y="374" style="fill:#000"/><rect width="11" height="11" x="330" y="374" style="fill:#000"/><rect width="11" height="11" x="341" y="374" style="fill:#000"/><rect width="11" height="11" x="363" y="374" style="fill:#000"/><rect width="11" height="11" x="374" y="374" style="fill:#000"/><rect width="11" height="11" x="385" y="374" style="fill:#000"/>
<rect width="11" height="11" x="0" y="385" style="fill:#000"/><rect width="11" height="11" x="66" y="385" style="fill:#000"/><rect width="11" height="11" x="99" y="385" style="fill:#000"/><rect width="11" height="11" x="143" y="385" style="fill:#000"/><rect width="11" height="11" x="209" y="385" style="fill:#000"/><rect width="11" height="11" x="231" y="385" style="fill:#000"/><rect width="11" height="11" x="242" y="385" style="fill:#000"/><rect width="11" height="11" x="264" y="385" style="fill:#000"/><rect width="11" height="11" x="286" y="385" style="fill:#000"/><rect width="11" height="11" x="319" y="385" style="fill:#000"/><rect width="11" height="11" x="330" y="385" style="fill:#000"/><rect width="11" height="11" x="341" y="385" style="fill:#000"/><rect width="11" height="11" x="352" y="385" style="fill:#000"/><rect width="11" height="11" x="363" y="385" style="fill:#000"/><rect width="11" height="11" x="374" y="385" style="fill:#000"/><rect width="11" height="11" x="385" y="385" style="fill:#000"/>
<rect width="11" height="11" x="0" y="396" style="fill:#000"/><rect width="11" height="11" x="11" y="396" style="fill:#000"/><rect width="11" height="11" x="22" y="396" style="fill:#000"/><rect width="11" height="11" x="33" y="396" style="fill:#000"/><rect width="11" height="11" x="44" y="396" style="fill:#000"/><rect width="11" height="11" x="55" y="396" style="fill:#000"/><rect width="11" height="11" x="66" y="396" style="fill:#000"/><rect width="11" height="11" x="110" y="396" style="fill:#000"/><rect width="11" height="11" x="132" y="396" style="fill:#000"/><rect width="11" height="11" x="165" y="396" style="fill:#000"/><rect width="11" height="11" x="176" y="396" style="fill:#000"/><rect width="11" height="11" x="209" y="396" style="fill:#000"/><rect width="11" height="11" x="220" y="396" style="fill:#000"/><rect width="11" height="11" x="242" y="396" style="fill:#000"/><rect width="11" height="11" x="253" y="396" style="fill:#000"/><rect width="11" height="11" x="264" y="396" style="fill:#000"/><rect width="11" height="11" x="341" y="396" style="fill:#000"/><rect width="11" height="11" x="352" y="396" style="fill:#000"/><rect width="11" height="11" x="374" y="396" style="fill:#000"/><rect width="11" height="11" x="385" y="396" style="fill:#000"/><rect width="11" height="11" x="396" y="396" style="fill:#000"/>
</svg>